<?xml version="1.0" standalone="no"?>
<!DOCTYPE svg PUBLIC "-//W3C//DTD SVG 20010904//EN"
 "http://www.w3.org/TR/2001/REC-SVG-20010904/DTD/svg10.dtd">
<svg version="1.0" xmlns="http://www.w3.org/2000/svg"
 width="1024.000000pt" height="1024.000000pt" viewBox="0 0 1024.000000 1024.000000"
 preserveAspectRatio="xMidYMid meet">
<metadata>
Created by potrace 1.14, written by Peter Selinger 2001-2017
</metadata>
<g transform="translate(0.000000,1024.000000) scale(0.100000,-0.100000)"
fill="#000000" stroke="none">
<path d="M4665 10180 c-3 -5 -1 -10 4 -10 6 0 11 5 11 10 0 6 -2 10 -4 10 -3
0 -8 -4 -11 -10z"/>
<path d="M4596 10114 c-25 -25 -43 -50 -40 -55 3 -5 1 -8 -4 -7 -20 6 -64 -76
-72 -132 -8 -60 -7 -146 3 -170 4 -8 8 -26 11 -40 2 -14 18 -59 35 -100 17
-41 31 -80 31 -86 0 -6 9 -19 19 -28 11 -10 23 -31 26 -48 4 -16 13 -32 21
-35 8 -3 14 -16 14 -28 0 -13 7 -31 15 -39 9 -8 21 -30 27 -48 6 -18 16 -36
21 -39 5 -4 11 -21 13 -39 2 -18 9 -39 16 -47 9 -11 9 -23 -1 -50 -12 -31 -11
-37 2 -45 14 -8 14 -13 0 -53 -9 -24 -21 -41 -26 -38 -6 3 -7 1 -3 -6 6 -9 11
-9 22 0 12 10 13 8 5 -13 -51 -134 -155 -222 -276 -233 -22 -2 -52 -6 -66 -10
-19 -5 -28 -2 -32 10 -6 14 -10 13 -36 -6 -22 -16 -33 -19 -47 -11 -13 7 -24
6 -41 -5 -13 -9 -26 -13 -29 -10 -3 3 -20 1 -37 -4 -37 -11 -70 -3 -60 14 4 7
-1 6 -10 -2 -14 -11 -23 -12 -43 -2 -14 6 -22 16 -19 21 3 6 -1 7 -9 4 -10 -4
-18 1 -23 12 -4 11 -15 25 -25 32 -13 9 -17 20 -12 34 4 13 2 18 -5 14 -15
-10 -31 55 -18 72 8 10 7 16 -2 21 -20 13 -6 88 23 126 33 43 34 55 1 18 l-24
-28 -1 28 c0 17 -5 27 -15 27 -8 0 -17 -12 -21 -27 -3 -16 -9 -37 -14 -48 -7
-18 -8 -17 -15 9 -6 20 -3 37 9 56 13 23 13 28 2 26 -24 -3 -46 -27 -46 -50 0
-15 -3 -17 -9 -8 -4 8 -12 13 -17 12 -5 0 -18 1 -28 4 -16 4 -17 7 -6 21 12
14 9 15 -20 10 -35 -6 -90 2 -89 13 5 30 -3 34 -24 14 -16 -15 -36 -22 -65
-22 -23 0 -42 4 -42 9 0 6 -15 4 -33 -4 -34 -14 -99 -21 -127 -14 -8 2 -15 -2
-15 -10 0 -8 19 -21 43 -29 41 -13 42 -15 27 -32 -12 -14 -13 -20 -4 -26 8 -4
10 -3 5 4 -4 7 -1 12 8 12 8 0 16 5 18 11 2 5 11 7 21 3 14 -5 17 -14 14 -40
-3 -19 -1 -31 4 -28 5 3 7 10 4 15 -10 15 32 10 45 -6 7 -8 10 -15 7 -15 -3 0
5 -11 18 -25 14 -13 25 -29 25 -35 0 -6 7 -19 16 -27 9 -9 14 -26 11 -40 -2
-12 0 -23 4 -23 11 0 42 -60 35 -68 -4 -3 4 -16 16 -29 12 -12 22 -31 23 -40
0 -10 9 -30 19 -45 11 -17 15 -35 11 -49 -5 -13 -3 -19 3 -15 15 9 34 -21 28
-42 -4 -11 -19 -33 -33 -48 -32 -34 -42 -64 -15 -42 9 7 26 24 39 38 l22 25 1
-37 c0 -29 -6 -41 -29 -58 -21 -14 -38 -19 -56 -14 -24 6 -49 27 -25 22 7 -2
14 5 15 14 3 15 0 15 -25 -3 -28 -22 -67 -22 -62 -1 2 14 -10 16 -23 3 -6 -6
-29 -7 -53 -4 -32 4 -40 9 -32 18 8 9 4 11 -15 7 -14 -2 -28 -8 -31 -13 -3 -5
-23 -9 -45 -9 -24 0 -38 4 -34 10 3 6 -5 10 -19 10 -14 0 -28 -4 -31 -10 -3
-5 -25 -10 -48 -10 -40 1 -41 1 -22 16 20 15 19 15 -5 12 -15 -2 -24 -9 -22
-17 2 -8 -3 -11 -12 -8 -8 3 -22 -1 -33 -8 -25 -20 -67 -20 -59 0 3 8 1 15 -4
15 -6 0 -10 -4 -10 -9 0 -5 -19 -12 -42 -16 -39 -7 -40 -8 -23 -21 10 -8 34
-14 52 -14 26 0 33 -4 33 -20 0 -22 12 -25 41 -10 22 12 60 -2 40 -14 -23 -14
-10 -26 23 -20 43 6 53 -9 30 -44 -15 -23 -15 -25 -1 -14 24 20 61 11 65 -15
2 -13 9 -23 17 -23 7 0 15 -9 18 -20 3 -11 1 -20 -4 -20 -5 0 -9 -5 -9 -12 0
-6 -10 -23 -22 -37 -21 -24 -21 -24 8 2 37 33 44 34 44 3 0 -13 -15 -41 -34
-62 -25 -28 -41 -37 -65 -37 -39 0 -51 11 -29 27 10 7 15 16 11 19 -3 4 -12 2
-19 -4 -8 -6 -25 -8 -40 -5 -26 7 -26 7 -8 28 19 21 19 21 -3 7 -17 -10 -27
-10 -48 -1 -14 7 -23 17 -20 22 10 15 -5 32 -18 22 -17 -13 -109 -24 -102 -12
7 12 -21 1 -52 -20 -26 -17 -30 -30 -8 -30 24 0 17 -18 -12 -34 -16 -8 -43
-30 -61 -49 -32 -33 -35 -34 -62 -20 -26 12 -28 17 -19 41 8 24 8 25 -5 10
-17 -22 -22 -22 -30 -2 -4 9 1 27 9 40 16 25 8 33 -13 12 -9 -9 -12 -6 -12 15
0 15 13 41 31 62 33 37 20 46 -14 10 -18 -20 -18 -20 -13 15 4 21 21 49 42 71
20 21 31 39 26 43 -6 3 -20 -6 -31 -20 -23 -30 -28 -13 -8 26 19 37 26 66 17
80 -13 21 -99 -42 -222 -162 -50 -50 -65 -55 -99 -37 -20 10 -20 11 -2 25 16
13 15 14 -18 8 -40 -6 -58 8 -40 30 9 10 8 15 -4 20 -9 3 -13 2 -10 -4 11 -18
-21 -10 -39 9 -15 17 -15 19 -1 25 9 3 13 11 10 16 -5 8 -11 7 -20 0 -11 -9
-18 -5 -35 22 -24 40 -24 42 -5 58 8 7 15 17 15 23 0 5 -9 2 -19 -7 -19 -17
-20 -17 -23 6 -2 15 6 32 25 51 31 29 17 39 -15 10 -20 -18 -23 -7 -8 33 10
26 2 43 -21 44 -7 0 -44 -92 -41 -103 1 -4 -1 -6 -5 -5 -5 2 -8 -1 -8 -7 0 -5
3 -9 6 -8 10 3 -2 -111 -12 -121 -5 -6 -9 -17 -9 -25 0 -14 2 -14 9 -2 8 12
11 8 15 -15 4 -16 11 -47 17 -69 6 -22 11 -49 12 -60 1 -11 8 -24 14 -28 7 -4
13 -12 13 -18 0 -10 2 -13 50 -70 16 -20 30 -42 30 -48 0 -6 11 -16 25 -21 20
-7 23 -15 20 -39 -2 -22 0 -28 10 -25 9 4 23 -13 39 -49 14 -30 26 -59 26 -65
0 -7 5 -12 10 -12 6 0 10 -10 10 -22 0 -13 9 -36 20 -53 11 -16 20 -44 20 -62
0 -17 4 -34 9 -37 4 -3 11 -23 15 -45 3 -21 13 -41 21 -45 8 -3 15 -10 15 -16
0 -18 34 -47 63 -54 22 -5 28 -12 25 -29 -1 -12 1 -23 5 -24 4 -2 7 0 6 4 -1
10 31 21 65 22 23 1 26 -2 17 -13 -17 -21 1 -27 38 -13 28 10 34 10 44 -4 7
-8 20 -18 30 -22 9 -4 20 -15 24 -24 4 -10 12 -22 20 -26 23 -14 14 -44 -21
-75 -19 -17 -32 -33 -29 -36 4 -3 2 -6 -4 -6 -5 0 -23 -11 -39 -25 -16 -14
-57 -40 -91 -57 -50 -24 -66 -28 -77 -19 -11 9 -16 9 -22 0 -5 -8 -3 -10 7 -4
10 6 11 5 4 -3 -10 -11 -116 -25 -175 -24 -98 2 -140 9 -159 26 -12 11 -24 17
-27 13 -11 -11 -62 14 -67 34 -3 12 -11 17 -20 13 -18 -7 -58 25 -50 40 3 6
-3 2 -14 -9 -18 -17 -19 -22 -7 -31 15 -12 19 -26 6 -21 -4 1 -7 -2 -7 -8 0
-5 5 -9 11 -9 6 1 11 -4 11 -10 -1 -43 15 -64 26 -33 2 6 3 4 2 -6 -2 -9 10
-43 26 -75 17 -31 28 -65 25 -75 -3 -11 -2 -16 1 -13 8 8 43 -39 43 -58 0 -9
9 -24 21 -34 11 -9 25 -27 30 -39 5 -13 17 -23 28 -23 10 0 25 -9 33 -21 8
-13 27 -23 47 -25 18 -2 42 -13 51 -24 11 -13 21 -17 25 -10 3 5 19 10 36 10
23 0 29 -4 29 -20 0 -18 3 -19 20 -10 24 13 42 5 38 -18 -2 -9 2 -16 9 -15 24
5 26 -38 2 -63 -12 -13 -19 -27 -16 -31 4 -3 -3 -18 -15 -32 -19 -21 -17 -20
10 3 17 17 32 37 32 45 0 10 3 12 10 5 14 -14 -3 -60 -33 -92 -22 -24 -91 -63
-137 -77 -22 -7 -23 -6 -11 9 7 9 9 16 3 16 -14 0 -33 -25 -25 -33 3 -4 -1 -7
-10 -7 -9 0 -58 -39 -108 -87 -50 -49 -97 -89 -105 -91 -8 -2 -14 -7 -14 -12
0 -11 -68 -25 -77 -16 -3 3 0 14 8 23 7 10 2 8 -12 -5 -20 -17 -33 -21 -53
-16 -14 3 -26 13 -26 20 0 10 -7 13 -23 9 -19 -5 -29 1 -49 27 -26 35 -42 81
-31 91 3 4 11 0 17 -8 9 -12 18 -8 54 23 29 25 44 47 45 64 1 16 7 24 15 21 8
-4 10 0 6 11 -4 9 -9 14 -12 11 -3 -3 -11 8 -18 25 -7 16 -28 39 -46 50 -18
11 -27 20 -19 20 8 0 11 3 8 6 -4 4 -13 1 -21 -5 -11 -9 -20 -9 -34 -2 -15 8
-27 5 -55 -17 -40 -30 -105 -112 -89 -112 6 0 12 -10 14 -22 2 -15 16 -29 43
-42 22 -10 42 -22 43 -27 2 -5 9 -6 14 -3 7 5 8 2 3 -7 -5 -7 -8 -26 -7 -41 1
-14 -3 -30 -8 -33 -8 -5 -6 -15 5 -32 9 -14 14 -34 12 -45 -3 -12 2 -27 15
-40 12 -12 18 -28 15 -40 -3 -11 -3 -17 0 -14 9 9 32 -14 27 -27 -2 -7 9 -20
26 -29 16 -9 30 -24 30 -33 0 -8 5 -15 10 -15 6 0 10 -6 10 -14 0 -9 7 -12 19
-9 25 6 36 -14 19 -34 -12 -15 -11 -15 10 -4 18 10 23 9 28 -2 3 -8 14 -12 28
-10 13 3 39 0 59 -5 19 -5 39 -6 44 -2 13 12 101 18 111 8 6 -6 17 -6 30 1 30
16 92 1 144 -37 27 -18 48 -38 48 -43 0 -4 9 -17 21 -28 11 -10 21 -25 23 -34
1 -8 9 -21 18 -30 24 -25 18 -125 -11 -165 -49 -70 -147 -132 -215 -136 -51
-4 -83 -22 -89 -53 -4 -24 -1 -26 49 -23 20 1 33 -4 37 -13 3 -8 22 -20 41
-27 20 -6 36 -18 36 -26 0 -8 10 -14 23 -14 23 0 67 -33 67 -49 0 -5 9 -7 20
-4 16 4 23 -1 31 -25 8 -22 15 -29 29 -25 34 9 36 -25 4 -59 l-29 -30 33 16
c17 9 32 14 32 10 0 -15 -48 -82 -106 -147 -63 -71 -69 -87 -33 -87 10 0 19
-7 19 -15 0 -18 5 -19 29 -3 10 6 26 8 36 4 15 -5 15 -9 4 -23 -9 -11 -3 -9
15 5 34 26 42 27 63 6 11 -11 19 -12 26 -5 14 14 64 14 72 1 4 -6 23 -7 46 -4
32 5 43 3 54 -12 8 -11 14 -14 15 -6 0 6 7 12 15 12 12 0 14 8 9 38 -3 20 -8
40 -10 44 -3 4 0 17 6 28 8 14 8 20 0 20 -16 0 -11 153 7 213 29 98 80 161
164 203 61 31 115 39 195 29 57 -7 61 -10 120 -80 21 -24 24 -26 19 -9 -4 16
5 33 35 65 22 24 49 54 60 66 15 16 18 30 13 53 -5 29 -4 31 18 25 24 -6 24
-5 24 58 0 47 4 68 18 81 9 10 17 22 17 27 0 6 14 9 32 7 27 -3 33 1 39 25 9
33 -9 83 -40 111 -21 19 -29 66 -11 66 6 0 11 -1 13 -2 10 -7 45 25 42 39 -2
10 -4 26 -4 36 -1 9 -12 27 -26 39 -24 21 -33 40 -17 36 24 -5 72 32 72 56 0
20 17 29 59 30 l36 1 0 52 c1 29 4 55 7 59 4 3 21 2 37 -4 27 -9 31 -8 37 11
6 19 10 39 13 71 1 4 13 5 29 1 15 -4 33 -8 40 -8 6 0 12 -4 12 -8 0 -8 70
-18 71 -9 1 3 2 17 3 31 6 63 34 55 114 -30 23 -25 42 -40 42 -33 0 7 14 18
30 23 17 6 30 17 30 25 0 20 24 17 44 -5 10 -11 30 -21 45 -23 25 -3 26 -6 29
-64 3 -61 3 -62 35 -68 32 -6 73 -57 61 -77 -3 -5 0 -9 6 -9 6 0 9 -4 5 -9 -3
-5 2 -16 10 -24 12 -12 23 -13 47 -6 18 5 45 9 60 9 25 0 27 -3 33 -67 8 -88
8 -88 31 -89 10 0 35 -4 56 -8 33 -7 37 -11 42 -50 18 -120 19 -122 72 -106
22 6 55 10 74 8 34 -3 35 -5 43 -55 7 -42 12 -53 27 -53 10 0 22 -9 25 -21 l7
-20 18 21 c10 11 35 23 55 25 47 6 55 12 55 35 0 11 9 24 20 30 15 8 21 6 30
-11 11 -20 12 -20 36 8 14 15 29 38 34 50 8 20 13 21 40 12 16 -6 30 -15 30
-19 0 -6 52 -30 65 -30 2 0 10 17 18 38 14 35 18 38 46 34 17 -2 31 -9 31 -14
0 -5 5 -6 10 -3 6 3 10 0 10 -8 0 -8 9 -24 19 -36 l20 -23 15 37 c9 21 16 41
16 46 0 5 9 9 20 9 12 0 26 -12 36 -32 26 -51 48 -61 59 -28 5 16 12 19 28 14
12 -4 24 -11 25 -15 2 -5 9 -9 16 -9 8 0 24 -9 38 -19 l24 -20 18 30 c21 35
48 37 73 6 23 -29 64 -30 79 -2 15 30 43 22 95 -30 19 -19 20 -19 68 33 27 29
53 52 58 52 5 0 17 -24 26 -52 26 -80 28 -82 70 -65 19 9 50 17 69 19 27 2 33
-1 34 -17 0 -11 1 -42 2 -69 2 -43 4 -48 21 -43 38 10 62 -38 47 -94 -6 -21
-4 -27 13 -32 17 -4 21 -13 21 -49 0 -23 3 -53 6 -64 6 -22 42 -44 72 -44 9 0
23 -4 30 -8 19 -13 -5 -108 -31 -119 -17 -8 -18 -11 -5 -23 19 -20 29 -48 19
-55 -5 -3 -14 -27 -21 -54 -6 -27 -18 -52 -26 -55 -23 -9 -16 -21 19 -35 45
-18 62 -45 41 -66 -9 -8 -19 -13 -23 -11 -4 3 -14 -4 -21 -15 -8 -10 -22 -19
-32 -19 -10 0 -18 -4 -18 -10 0 -5 -7 -10 -16 -10 -14 0 -16 -7 -11 -40 3 -27
1 -40 -6 -40 -7 0 -6 -4 2 -9 21 -13 5 -41 -24 -41 -14 0 -25 -3 -26 -7 -1 -5
-3 -21 -5 -38 -6 -46 -6 -48 1 -82 7 -29 5 -33 -14 -33 -12 0 -31 -9 -43 -20
-12 -11 -18 -20 -12 -20 5 0 24 -14 42 -30 37 -32 36 -23 7 -142 -4 -20 19
-48 40 -48 8 0 21 -10 29 -22 9 -12 16 -18 16 -12 0 5 14 18 30 27 17 10 30
15 30 11 0 -4 6 -1 13 8 15 19 107 39 185 40 58 1 162 -27 162 -44 0 -4 5 -8
11 -8 11 0 53 -41 85 -82 13 -17 34 -75 41 -113 3 -16 8 -31 12 -33 4 -1 6
-42 5 -90 -1 -68 -9 -108 -34 -181 -26 -79 -83 -193 -117 -236 -5 -5 -16 -22
-26 -37 -16 -25 -85 -96 -119 -123 -34 -28 -89 -55 -150 -75 -57 -19 -82 -22
-165 -18 -82 4 -107 9 -153 33 -30 15 -56 31 -58 36 -2 5 -8 9 -13 9 -6 0 -26
11 -46 25 l-37 24 -15 -22 c-8 -12 -19 -26 -23 -32 -5 -5 -19 -32 -32 -58
l-24 -48 27 -17 c30 -19 42 -33 35 -43 -2 -4 11 -5 31 -2 28 4 35 2 35 -11 0
-9 -5 -16 -11 -16 -5 0 -7 -5 -3 -11 3 -6 9 -7 13 -3 13 18 61 15 68 -3 3 -10
17 -30 31 -45 13 -14 21 -31 18 -37 -4 -5 5 -18 19 -27 14 -9 25 -23 25 -30 0
-8 11 -24 25 -36 16 -14 23 -28 19 -40 -6 -19 1 -21 49 -18 24 1 27 -1 23 -24
-3 -18 -1 -23 10 -19 8 3 14 9 14 14 0 4 6 6 14 3 8 -3 17 -1 21 5 3 6 15 11
27 11 14 0 18 -5 14 -16 -5 -13 0 -15 33 -9 28 5 42 2 54 -10 21 -21 159 -35
140 -14 -18 18 -16 35 7 56 19 18 19 19 -8 18 -36 0 -41 29 -10 63 12 15 15
21 6 13 -37 -28 -54 31 -18 64 11 10 17 22 13 28 -3 6 -10 0 -15 -13 -12 -33
-30 -12 -26 31 3 31 6 34 38 37 23 3 38 -2 46 -13 8 -10 14 -12 19 -6 9 16 64
13 82 -4 12 -12 18 -13 29 -4 11 9 24 9 52 1 20 -6 44 -11 52 -11 8 -1 30 -4
48 -7 28 -5 33 -10 28 -28 -4 -19 -4 -19 8 -4 8 11 20 15 34 11 16 -4 24 1 31
18 13 35 12 44 -1 44 -8 0 -13 13 -13 30 0 17 -6 36 -13 44 -7 7 -12 28 -11
46 2 20 -3 39 -14 49 -21 22 -21 35 0 66 9 14 13 22 8 18 -13 -12 -35 12 -35
40 0 14 10 37 23 51 14 16 15 20 4 11 -16 -12 -20 -12 -28 1 -22 35 -9 58 64
113 33 24 59 36 80 36 30 -1 31 -1 13 -15 -27 -20 -18 -19 29 5 43 22 76 25
91 10 7 -7 19 -7 35 -2 13 5 49 8 79 6 30 -1 97 -5 148 -8 51 -3 97 -8 102
-11 4 -3 19 -1 32 4 18 8 19 10 5 10 -14 1 -17 6 -12 22 5 14 3 19 -3 15 -12
-7 -26 29 -17 43 3 6 -3 15 -14 20 -11 6 -25 27 -31 47 -7 20 -21 45 -32 56
-10 10 -16 23 -13 28 4 6 2 10 -4 10 -5 0 -20 21 -32 47 -13 27 -29 54 -37 62
-7 7 -11 20 -8 27 3 7 -3 19 -13 26 -24 18 -32 43 -18 57 9 9 8 10 -7 5 -15
-6 -17 -4 -11 6 5 9 4 11 -4 6 -6 -4 -13 0 -17 11 -3 10 -10 26 -15 37 -9 15
5 33 91 118 56 55 95 98 86 95 -27 -11 3 49 47 94 62 62 115 94 161 96 23 2
61 5 86 8 110 12 140 12 140 1 0 -6 4 -5 9 3 5 8 24 12 52 10 24 -1 56 1 72 5
17 5 32 4 41 -3 10 -8 16 -9 21 -1 10 16 45 12 45 -6 0 -15 2 -15 25 0 13 9
39 15 56 14 20 -2 34 2 37 11 2 8 0 11 -5 8 -6 -4 -9 12 -9 37 1 31 -3 42 -11
39 -8 -3 -13 3 -13 16 0 12 -3 21 -8 21 -4 0 -18 23 -30 51 -19 40 -21 53 -11
65 10 12 9 13 -4 9 -24 -10 -29 12 -10 42 l17 28 -22 -19 -22 -19 -7 34 c-4
19 -6 38 -5 42 1 5 -2 6 -8 2 -5 -3 -13 2 -16 12 -3 10 -10 28 -16 39 -7 15
-6 28 3 45 11 22 11 23 -5 10 -15 -13 -19 -13 -27 0 -5 8 -8 21 -8 29 2 30 -1
40 -13 37 -8 -1 -13 9 -13 25 1 14 -4 24 -9 21 -5 -4 -7 1 -3 10 4 11 2 14 -8
11 -15 -6 -30 30 -19 47 4 7 3 9 -4 5 -13 -8 -25 28 -17 53 3 11 24 36 45 55
30 27 49 36 75 36 19 0 35 -4 35 -10 0 -5 -3 -10 -7 -10 -5 0 -17 -13 -28 -27
-18 -25 -16 -25 22 6 35 28 44 31 62 22 12 -7 21 -15 21 -19 0 -4 15 -12 33
-18 17 -5 31 -15 30 -22 -2 -7 8 -12 27 -12 20 0 30 -5 30 -15 0 -8 4 -15 9
-15 12 0 22 28 12 35 -5 2 -21 43 -36 90 -22 67 -25 88 -16 99 10 12 8 13 -10
9 -20 -5 -21 -3 -14 28 4 19 11 38 16 44 5 5 9 16 8 25 0 8 -4 5 -10 -9 -5
-13 -12 -21 -15 -18 -11 11 6 75 28 102 34 43 139 127 154 121 7 -3 44 11 82
30 39 19 79 34 91 34 35 0 32 16 -9 59 -22 23 -40 45 -40 50 0 5 -9 7 -20 4
-18 -5 -25 5 -21 30 0 4 -8 7 -19 7 -14 0 -18 5 -13 16 3 9 0 20 -7 24 -25 15
20 78 115 162 50 44 97 89 105 101 9 12 29 63 45 112 17 50 37 97 45 105 9 8
10 11 3 6 -21 -14 -16 28 8 58 11 14 18 32 16 39 -4 9 -6 9 -6 0 -1 -7 -8 -13
-16 -13 -17 0 -21 35 -5 45 18 11 11 25 -13 25 -12 0 -55 -25 -96 -55 -41 -30
-77 -55 -81 -55 -4 0 -24 -11 -44 -25 -21 -14 -47 -27 -59 -28 -12 -1 -26 -7
-32 -13 -15 -16 -95 -45 -95 -35 0 6 5 13 10 16 6 4 8 11 4 16 -7 12 -34 -8
-34 -26 0 -21 -113 -44 -125 -25 -3 4 -13 6 -24 3 -10 -2 -25 3 -34 11 -8 9
-25 16 -35 16 -31 0 -52 11 -52 25 0 8 -9 17 -20 20 -20 6 -22 11 -24 50 -1
11 -8 20 -16 20 -8 0 -16 8 -18 19 -3 12 19 42 65 88 37 39 56 63 40 53 -15
-10 -43 -36 -62 -59 -18 -22 -36 -38 -40 -35 -10 11 18 63 63 114 74 84 140
116 242 117 49 1 94 -17 85 -33 -4 -5 3 -9 14 -9 15 0 21 -7 22 -22 0 -13 3
-18 5 -12 3 7 13 10 23 7 15 -4 19 2 23 31 2 19 2 33 -1 31 -6 -7 -51 74 -51
91 0 8 -5 14 -11 14 -5 0 -7 5 -3 12 4 7 3 8 -5 4 -12 -8 -58 41 -54 56 2 5 0
7 -5 7 -19 -3 -34 3 -54 24 -13 12 -25 22 -28 22 -3 1 -15 5 -28 9 -20 7 -21
10 -10 24 11 14 11 14 -6 5 -12 -6 -28 -7 -40 -3 -12 5 -34 11 -49 15 -21 4
-27 10 -23 22 5 13 4 14 -8 4 -9 -7 -17 -8 -20 -2 -3 5 -24 7 -46 4 -25 -4
-46 -1 -55 7 -12 10 -16 9 -20 -3 -6 -14 -72 -32 -107 -29 -9 1 -22 -5 -28
-13 -22 -26 -31 -17 -24 23 19 101 206 312 278 312 11 0 38 9 60 19 72 35 234
37 221 3 -5 -13 -3 -13 17 0 26 18 38 44 15 35 -9 -3 -23 3 -34 15 -25 28 -89
59 -107 52 -11 -4 -16 0 -16 10 0 21 -26 32 -43 18 -23 -20 -74 -24 -81 -7 -5
13 -9 14 -28 4 -29 -16 -39 -17 -164 -19 -148 -3 -208 18 -171 60 6 8 2 6 -10
-4 l-23 -19 1 34 c0 19 6 49 13 68 14 39 5 94 -24 151 l-17 34 31 26 c17 14
32 31 33 38 2 6 -16 -6 -38 -28 -23 -22 -45 -37 -50 -34 -5 3 -4 -7 1 -21 8
-20 6 -32 -5 -48 -20 -29 -19 -36 5 -30 15 4 20 0 20 -14 0 -23 -93 -113 -116
-113 -20 0 -45 25 -36 36 4 4 -8 -3 -26 -15 -18 -13 -36 -21 -39 -17 -3 3 -15
-1 -27 -9 -26 -19 -40 -19 -32 0 9 24 -12 17 -29 -9 -17 -26 -62 -40 -68 -22
-3 7 -12 4 -25 -7 -11 -11 -26 -16 -31 -12 -6 3 -11 1 -11 -5 0 -6 -4 -8 -10
-5 -5 3 -10 2 -10 -3 0 -4 -16 -16 -35 -25 -32 -15 -35 -15 -45 1 -10 15 -10
14 -5 -4 4 -14 0 -24 -10 -28 -8 -3 -15 0 -15 7 0 8 -3 8 -9 -2 -10 -15 -31
-7 -31 13 0 7 9 25 21 40 11 14 16 26 10 26 -6 0 -11 -4 -11 -10 0 -5 -4 -10
-10 -10 -12 0 -13 21 -1 52 5 13 9 26 10 31 0 4 14 33 30 65 33 64 54 85 195
198 109 86 204 196 267 311 22 39 47 77 55 84 11 9 12 14 4 19 -8 5 -6 19 9
48 25 48 26 62 7 62 -8 0 -16 7 -20 15 -9 23 -42 18 -88 -15 -41 -30 -68 -38
-68 -20 0 5 9 14 20 20 11 6 20 17 20 25 0 8 5 15 12 15 6 0 8 3 5 7 -9 8 -66
-48 -67 -64 0 -7 -4 -13 -9 -13 -12 0 -35 29 -28 36 3 4 -4 15 -16 25 -19 15
-20 21 -9 38 11 19 10 21 -12 21 -26 0 -39 21 -29 46 5 13 2 15 -15 10 -23 -8
-31 1 -34 39 -2 20 -5 23 -13 12 -11 -15 -77 -6 -83 11 -1 5 -11 8 -22 5 -11
-3 -26 3 -36 16 -10 11 -21 18 -26 15 -14 -9 -21 25 -8 41 10 12 9 16 -4 21
-23 9 -20 43 6 73 13 14 16 20 8 14 -26 -24 -33 -14 -26 38 7 53 43 160 57
169 5 3 1 13 -9 21 -16 14 -21 13 -47 -1 -20 -11 -31 -26 -33 -43 -4 -31 -10
-34 -26 -12 -10 13 -16 12 -54 -6 -48 -24 -64 -19 -37 11 10 11 15 23 11 27
-4 4 -10 3 -14 -2 -4 -6 -13 -11 -21 -13 -16 -4 -94 -62 -99 -75 -2 -4 -10
-13 -17 -21 -15 -15 -7 -31 15 -31 8 0 16 -9 16 -20 1 -11 2 -26 3 -32 1 -7
10 -13 20 -13 21 0 33 -22 25 -44 -3 -8 3 -15 14 -18 25 -7 53 -92 59 -183 4
-58 1 -75 -15 -101 -29 -45 -102 -85 -141 -78 -25 5 -29 9 -20 20 9 11 7 14
-10 14 -24 0 -26 11 -10 42 9 17 9 20 -4 15 -21 -8 -30 71 -10 95 9 10 10 18
5 22 -6 3 -12 0 -15 -6 -2 -7 -6 6 -8 30 -3 23 -2 42 2 42 4 0 10 7 13 16 5
14 4 15 -8 5 -12 -10 -15 -5 -21 28 -4 22 -4 45 -1 50 4 5 -1 16 -9 24 -16 17
-20 63 -6 71 5 4 8 14 6 24 -2 9 -4 19 -4 21 -1 3 -7 -3 -14 -14 -13 -17 -14
-17 -20 5 -3 13 -2 31 3 40 9 17 -1 42 -16 41 -5 -1 -9 11 -9 26 0 15 -10 38
-24 51 -14 14 -21 30 -18 43 3 11 0 19 -7 19 -17 0 -50 70 -33 71 6 0 0 5 -15
10 -31 12 -43 36 -27 55 10 12 8 13 -6 8 -14 -6 -16 -4 -10 7 7 11 6 12 -7 2
-12 -11 -18 -9 -33 7 -9 10 -15 26 -12 34 7 18 -11 32 -34 28 -9 -2 -21 4 -28
12 -7 8 -19 12 -27 9 -12 -4 -11 -11 6 -40 11 -19 18 -39 15 -44 -4 -5 -2 -9
3 -9 6 0 15 -14 21 -32 10 -28 8 -35 -11 -56 l-23 -25 22 14 c12 7 25 11 28 7
12 -12 10 -89 -2 -100 -7 -6 -13 -17 -13 -25 0 -8 -4 -12 -9 -9 -5 3 -15 -2
-22 -12 -13 -15 -12 -16 4 -3 9 7 17 10 17 5 0 -4 5 -3 12 4 19 19 28 14 28
-17 0 -21 -12 -40 -49 -74 -44 -42 -52 -57 -29 -57 4 0 7 6 6 13 -2 6 2 11 9
10 6 -2 15 6 18 17 5 17 35 30 35 15 0 -25 -37 -79 -82 -121 -53 -48 -217
-145 -190 -112 8 10 9 19 3 22 -5 4 -17 -4 -25 -16 -9 -12 -16 -18 -16 -13 0
6 -6 3 -13 -5 -16 -20 -110 -70 -133 -70 -15 0 -14 3 7 27 l24 26 -27 -19
c-15 -10 -28 -25 -28 -31 0 -7 -10 -13 -22 -13 -13 -1 -34 -7 -48 -15 -14 -8
-38 -14 -54 -15 -25 0 -27 2 -15 16 12 15 11 16 -11 9 -46 -16 -75 -12 -75 10
0 13 -6 19 -18 17 -20 -3 -23 19 -6 49 9 17 7 20 -7 17 -27 -5 -29 30 -3 58
l22 23 -22 -4 c-17 -3 -21 1 -21 24 0 15 5 32 10 37 8 8 6 15 -5 24 -20 17
-19 49 2 72 14 15 14 19 3 16 -12 -2 -15 9 -17 52 -1 30 3 63 9 75 10 18 10
19 -7 5 -17 -14 -18 -12 -12 47 5 47 4 62 -6 60 -7 -1 -12 10 -12 28 0 17 -8
36 -18 43 -11 9 -17 24 -15 40 2 19 -2 27 -12 27 -8 0 -17 11 -18 25 -2 13
-10 33 -18 44 -17 25 -18 63 -2 68 8 3 7 8 -4 18 -12 11 -13 22 -6 48 6 22 6
44 -1 64 -6 17 -11 43 -11 58 0 15 -7 33 -15 40 -8 7 -15 18 -15 26 0 7 -9 18
-21 24 -11 7 -25 25 -31 41 -5 16 -14 26 -20 23 -12 -7 -49 26 -42 37 3 5 -1
9 -9 9 -7 0 -28 15 -45 33 -99 105 -210 194 -249 200 -10 1 -22 5 -28 9 -40
24 -295 23 -295 -1 0 -4 19 -12 43 -18 94 -25 158 -56 198 -94 30 -29 39 -44
34 -59 -4 -14 -2 -20 7 -18 8 2 12 -5 10 -19 -2 -13 1 -23 7 -23 19 0 23 -41
5 -61 -16 -18 -16 -19 1 -19 16 0 17 -6 12 -52 -9 -74 -47 -143 -119 -220 -62
-65 -148 -122 -155 -103 -1 6 -23 9 -47 7 -38 -3 -44 -1 -49 19 -5 17 -9 20
-20 11 -17 -14 -60 -4 -53 14 3 9 -3 11 -20 8 -31 -6 -65 12 -58 30 8 20 -12
28 -26 11 -11 -13 -16 -13 -41 1 -16 8 -29 17 -29 20 0 3 5 2 12 -2 7 -4 8 -3
4 4 -4 7 -15 12 -24 12 -24 1 -90 99 -73 109 9 6 7 10 -8 14 -26 7 -37 34 -23
57 9 15 8 17 -8 13 -14 -4 -21 2 -25 20 -4 14 -4 31 0 36 3 6 2 11 -3 11 -32
0 -43 164 -17 228 10 24 12 38 5 40 -19 7 -10 22 13 23 21 0 21 1 2 8 l-20 8
20 4 c13 3 16 7 8 12 -7 4 -29 -11 -57 -39z"/>
<path d="M4959 9693 c-13 -16 -12 -17 4 -4 9 7 17 15 17 17 0 8 -8 3 -21 -13z"/>
<path d="M5335 9668 l-40 -43 45 40 c25 22 47 41 49 43 2 1 0 2 -5 2 -6 0 -28
-19 -49 -42z"/>
<path d="M6613 9653 c4 -3 -1 -16 -10 -27 -18 -21 -18 -21 4 -2 20 16 23 36 6
36 -4 0 -3 -3 0 -7z"/>
<path d="M3949 9633 c-13 -16 -12 -17 4 -4 9 7 17 15 17 17 0 8 -8 3 -21 -13z"/>
<path d="M4269 9593 c-13 -16 -12 -17 4 -4 9 7 17 15 17 17 0 8 -8 3 -21 -13z"/>
<path d="M4391 9596 c-9 -10 -7 -17 6 -27 16 -12 17 -12 6 2 -10 12 -10 18 -1
27 7 7 9 12 6 12 -3 0 -11 -6 -17 -14z"/>
<path d="M6679 9593 c-13 -16 -12 -17 4 -4 9 7 17 15 17 17 0 8 -8 3 -21 -13z"/>
<path d="M6769 9563 l-24 -28 28 24 c15 14 27 26 27 28 0 8 -8 1 -31 -24z"/>
<path d="M4349 9553 c-13 -16 -12 -17 4 -4 16 13 21 21 13 21 -2 0 -10 -8 -17
-17z"/>
<path d="M4129 9533 c-13 -16 -12 -17 4 -4 16 13 21 21 13 21 -2 0 -10 -8 -17
-17z"/>
<path d="M4484 9448 l-29 -33 33 29 c30 28 37 36 29 36 -2 0 -16 -15 -33 -32z"/>
<path d="M7009 9443 c-13 -16 -12 -17 4 -4 9 7 17 15 17 17 0 8 -8 3 -21 -13z"/>
<path d="M7069 9433 c-13 -16 -12 -17 4 -4 9 7 17 15 17 17 0 8 -8 3 -21 -13z"/>
<path d="M7029 9377 c6 -8 7 -18 3 -22 -4 -5 -1 -5 6 -1 10 6 10 11 1 22 -6 8
-14 14 -16 14 -3 0 0 -6 6 -13z"/>
<path d="M6989 9353 c-13 -16 -12 -17 4 -4 9 7 17 15 17 17 0 8 -8 3 -21 -13z"/>
<path d="M7089 9293 c-13 -16 -12 -17 4 -4 16 13 21 21 13 21 -2 0 -10 -8 -17
-17z"/>
<path d="M3639 9283 c-13 -16 -12 -17 4 -4 9 7 17 15 17 17 0 8 -8 3 -21 -13z"/>
<path d="M6619 9163 l-34 -38 38 34 c34 33 42 41 34 41 -2 0 -19 -17 -38 -37z"/>
<path d="M7300 9069 c0 -5 5 -7 10 -4 6 3 10 8 10 11 0 2 -4 4 -10 4 -5 0 -10
-5 -10 -11z"/>
<path d="M7750 9065 c-7 -8 -17 -12 -23 -8 -6 4 -7 1 -3 -6 6 -9 13 -8 27 5
10 9 19 19 19 21 0 7 -8 2 -20 -12z"/>
<path d="M2923 9045 c0 -8 4 -12 9 -9 5 3 6 10 3 15 -9 13 -12 11 -12 -6z"/>
<path d="M4206 8934 c-23 -23 -20 -30 4 -9 11 10 20 20 20 22 0 7 -9 2 -24
-13z"/>
<path d="M3170 8809 c0 -5 5 -7 10 -4 6 3 10 8 10 11 0 2 -4 4 -10 4 -5 0 -10
-5 -10 -11z"/>
<path d="M6110 8800 c-9 -6 -10 -10 -3 -10 6 0 15 5 18 10 8 12 4 12 -15 0z"/>
<path d="M8075 8731 c-3 -5 -2 -12 3 -15 5 -3 9 1 9 9 0 17 -3 19 -12 6z"/>
<path d="M8119 8653 c-13 -16 -12 -17 4 -4 9 7 17 15 17 17 0 8 -8 3 -21 -13z"/>
<path d="M2353 8635 c0 -7 6 -11 14 -8 7 3 13 6 13 8 0 2 -6 5 -13 8 -8 3 -14
-1 -14 -8z"/>
<path d="M2305 8600 c-8 -13 9 -20 24 -11 10 6 9 10 -3 14 -8 3 -18 2 -21 -3z"/>
<path d="M7229 8483 c-13 -16 -12 -17 4 -4 9 7 17 15 17 17 0 8 -8 3 -21 -13z"/>
<path d="M1949 8433 c-13 -16 -12 -17 4 -4 9 7 17 15 17 17 0 8 -8 3 -21 -13z"/>
<path d="M2035 8391 c-3 -5 -2 -12 3 -15 5 -3 9 1 9 9 0 17 -3 19 -12 6z"/>
<path d="M1869 8353 c-13 -16 -12 -17 4 -4 9 7 17 15 17 17 0 8 -8 3 -21 -13z"/>
<path d="M3033 8336 c0 -8 6 -12 14 -9 7 3 13 9 13 14 0 5 -6 9 -13 9 -8 0
-14 -6 -14 -14z"/>
<path d="M2029 8273 c-13 -16 -12 -17 4 -4 16 13 21 21 13 21 -2 0 -10 -8 -17
-17z"/>
<path d="M1809 8253 c-13 -16 -12 -17 4 -4 16 13 21 21 13 21 -2 0 -10 -8 -17
-17z"/>
<path d="M1949 8193 c-13 -16 -12 -17 4 -4 9 7 17 15 17 17 0 8 -8 3 -21 -13z"/>
<path d="M1729 8173 c-13 -16 -12 -17 4 -4 9 7 17 15 17 17 0 8 -8 3 -21 -13z"/>
<path d="M2837 8159 c7 -7 15 -10 18 -7 3 3 -2 9 -12 12 -14 6 -15 5 -6 -5z"/>
<path d="M3010 8150 c-9 -6 -10 -10 -3 -10 6 0 15 5 18 10 8 12 4 12 -15 0z"/>
<path d="M3267 8087 c-3 -8 0 -14 7 -14 7 0 13 6 13 14 0 7 -4 13 -8 13 -4 0
-9 -6 -12 -13z"/>
<path d="M8254 7988 l-19 -23 23 19 c21 18 27 26 19 26 -2 0 -12 -10 -23 -22z"/>
<path d="M8319 7883 c-13 -16 -12 -17 4 -4 9 7 17 15 17 17 0 8 -8 3 -21 -13z"/>
<path d="M1510 7860 c-9 -6 -10 -10 -3 -10 6 0 15 5 18 10 8 12 4 12 -15 0z"/>
<path d="M8037 7843 c-4 -3 -7 -13 -7 -21 0 -18 13 -7 16 13 2 17 1 18 -9 8z"/>
<path d="M1563 7785 c0 -8 4 -12 9 -9 5 3 6 10 3 15 -9 13 -12 11 -12 -6z"/>
<path d="M8239 7743 c-13 -16 -12 -17 4 -4 9 7 17 15 17 17 0 8 -8 3 -21 -13z"/>
<path d="M7459 7732 c-36 -44 -40 -54 -9 -25 19 18 32 35 29 37 -3 3 -12 -2
-20 -12z"/>
<path d="M7925 7730 c-4 -6 -11 -8 -16 -5 -5 4 -9 1 -9 -4 0 -16 16 -13 30 4
7 8 10 15 7 15 -3 0 -9 -5 -12 -10z"/>
<path d="M1326 7683 c-6 -14 -5 -15 5 -6 7 7 10 15 7 18 -3 3 -9 -2 -12 -12z"/>
<path d="M7866 7689 c2 -4 -2 -10 -8 -12 -8 -4 -9 -6 -2 -6 6 -1 17 5 23 12 8
10 7 14 -4 14 -8 0 -12 -4 -9 -8z"/>
<path d="M1389 7623 c-13 -16 -12 -17 4 -4 9 7 17 15 17 17 0 8 -8 3 -21 -13z"/>
<path d="M1249 7613 c-13 -16 -12 -17 4 -4 16 13 21 21 13 21 -2 0 -10 -8 -17
-17z"/>
<path d="M8695 7430 c-3 -5 2 -16 11 -25 12 -12 19 -13 30 -4 8 6 12 15 9 19
-7 12 -44 19 -50 10z"/>
<path d="M8240 7253 l-55 -58 58 55 c31 30 57 56 57 57 0 8 -10 -1 -60 -54z"/>
<path d="M2077 7183 c-11 -11 -8 -23 7 -23 9 0 12 -8 8 -25 -3 -16 0 -25 8
-25 7 0 10 6 7 14 -3 7 -1 18 5 24 8 8 6 15 -5 26 -17 18 -21 19 -30 9z"/>
<path d="M2661 7084 c0 -11 3 -14 6 -6 3 7 2 16 -1 19 -3 4 -6 -2 -5 -13z"/>
<path d="M1469 7063 c-13 -16 -12 -17 4 -4 9 7 17 15 17 17 0 8 -8 3 -21 -13z"/>
<path d="M2520 7060 c-9 -6 -10 -10 -3 -10 6 0 15 5 18 10 8 12 4 12 -15 0z"/>
<path d="M2079 6946 c0 -1 -2 -9 -4 -19 -3 -18 -3 -18 16 -1 10 9 19 18 19 19
0 2 -29 3 -31 1z"/>
<path d="M8765 6861 c-3 -5 -1 -12 5 -16 5 -3 10 1 10 9 0 18 -6 21 -15 7z"/>
<path d="M8518 6776 c-14 -14 -29 -22 -34 -18 -4 4 -4 1 0 -5 4 -8 -2 -17 -18
-25 -14 -6 -26 -15 -26 -20 0 -14 33 8 75 51 43 45 45 55 3 17z"/>
<path d="M9153 6575 c0 -8 4 -12 9 -9 5 3 6 10 3 15 -9 13 -12 11 -12 -6z"/>
<path d="M1835 6469 c-4 -6 -5 -12 -2 -15 2 -3 7 2 10 11 7 17 1 20 -8 4z"/>
<path d="M8703 6445 c0 -8 4 -12 9 -9 5 3 6 10 3 15 -9 13 -12 11 -12 -6z"/>
<path d="M2549 6433 c-1 -5 -1 -11 0 -16 1 -4 -10 -13 -24 -19 -14 -6 -25 -15
-25 -20 0 -5 13 0 28 11 16 11 29 27 29 35 0 16 -6 22 -8 9z"/>
<path d="M8547 6412 c-15 -16 -15 -19 -2 -19 8 0 13 3 10 5 -3 3 0 11 6 19 17
20 5 16 -14 -5z"/>
<path d="M9070 6360 c-6 -11 -8 -20 -6 -20 3 0 10 9 16 20 6 11 8 20 6 20 -3
0 -10 -9 -16 -20z"/>
<path d="M9494 6098 l-19 -23 23 19 c21 18 27 26 19 26 -2 0 -12 -10 -23 -22z"/>
<path d="M9449 6063 c-13 -16 -12 -17 4 -4 9 7 17 15 17 17 0 8 -8 3 -21 -13z"/>
<path d="M9150 5800 c0 -5 5 -10 11 -10 5 0 7 5 4 10 -3 6 -8 10 -11 10 -2 0
-4 -4 -4 -10z"/>
<path d="M3917 5642 c-15 -15 -27 -32 -27 -38 1 -20 31 -47 55 -50 18 -1 45
-22 79 -61 73 -80 137 -161 165 -205 26 -43 38 -46 69 -18 30 28 26 94 -7 120
-4 3 -24 31 -45 64 -21 32 -49 68 -62 79 -13 11 -24 25 -24 31 0 5 -22 31 -50
58 -42 40 -56 48 -88 48 -29 0 -45 -7 -65 -28z"/>
<path d="M2435 5391 c-10 -17 12 -21 25 -6 10 12 10 15 -3 15 -9 0 -18 -4 -22
-9z"/>
<path d="M3665 5360 c-3 -5 -2 -10 4 -10 5 0 13 5 16 10 3 6 2 10 -4 10 -5 0
-13 -4 -16 -10z"/>
<path d="M8590 5354 c0 -8 5 -12 10 -9 6 4 8 11 5 16 -9 14 -15 11 -15 -7z"/>
<path d="M1529 5313 c-13 -16 -12 -17 4 -4 16 13 21 21 13 21 -2 0 -10 -8 -17
-17z"/>
<path d="M1474 5258 l-19 -23 23 19 c21 18 27 26 19 26 -2 0 -12 -10 -23 -22z"/>
<path d="M3900 5247 c-33 -15 -44 -27 -62 -62 -50 -99 111 -190 193 -110 41
41 52 57 43 64 -5 3 -10 18 -11 34 -5 65 -95 106 -163 74z"/>
<path d="M4705 5213 c-49 -66 -138 -176 -180 -223 -221 -249 -281 -381 -253
-552 22 -136 187 -182 297 -83 58 52 83 113 83 198 0 40 -5 84 -11 98 -5 15
-13 69 -16 120 -9 114 12 205 87 398 16 40 27 75 25 78 -2 2 -17 -13 -32 -34z"/>
<path d="M3680 5220 c0 -11 4 -20 9 -20 11 0 22 26 14 34 -12 12 -23 5 -23
-14z"/>
<path d="M679 5153 c-13 -16 -12 -17 4 -4 16 13 21 21 13 21 -2 0 -10 -8 -17
-17z"/>
<path d="M3211 5144 c-23 -17 -65 -100 -56 -113 2 -5 -2 -17 -9 -27 -9 -11
-11 -25 -6 -34 4 -8 10 -31 13 -50 5 -44 38 -117 64 -147 15 -17 31 -23 61
-23 22 0 43 4 46 9 3 5 8 39 10 76 3 36 10 82 16 101 20 59 -4 139 -58 197
-30 31 -48 34 -81 11z"/>
<path d="M5828 5095 c-2 -2 -61 -6 -133 -9 -71 -4 -155 -9 -185 -12 -30 -4
-67 -6 -82 -7 -15 0 -26 -3 -23 -6 2 -4 -16 -13 -41 -20 -49 -15 -69 -40 -60
-77 7 -28 29 -33 91 -20 97 21 281 42 350 39 125 -4 168 -21 218 -85 23 -29
26 -30 60 -19 40 14 50 36 29 69 -8 12 -11 22 -7 22 5 0 -2 8 -13 19 -12 10
-19 21 -15 25 3 3 1 6 -5 6 -6 0 -18 12 -26 28 -8 15 -15 24 -16 19 0 -4 -16
-1 -35 7 -19 8 -35 13 -35 12 0 -2 -16 0 -34 4 -19 4 -36 6 -38 5z"/>
<path d="M2559 5003 c-13 -16 -12 -17 4 -4 16 13 21 21 13 21 -2 0 -10 -8 -17
-17z"/>
<path d="M8829 4983 c-13 -16 -12 -17 4 -4 9 7 17 15 17 17 0 8 -8 3 -21 -13z"/>
<path d="M2429 4913 c-13 -16 -12 -17 4 -4 9 7 17 15 17 17 0 8 -8 3 -21 -13z"/>
<path d="M3677 4904 c-9 -10 4 -34 19 -34 8 0 14 9 14 20 0 19 -19 27 -33 14z"/>
<path d="M3600 4890 c0 -5 5 -10 11 -10 5 0 7 5 4 10 -3 6 -8 10 -11 10 -2 0
-4 -4 -4 -10z"/>
<path d="M3850 4879 c0 -5 5 -7 10 -4 6 3 10 8 10 11 0 2 -4 4 -10 4 -5 0 -10
-5 -10 -11z"/>
<path d="M9689 4833 c-13 -16 -12 -17 4 -4 9 7 17 15 17 17 0 8 -8 3 -21 -13z"/>
<path d="M9783 4796 c0 -15 22 -15 34 0 4 5 4 6 -1 2 -5 -4 -14 -3 -21 2 -8 7
-12 5 -12 -4z"/>
<path d="M2571 4776 c-9 -11 -9 -16 1 -22 7 -4 10 -4 6 1 -4 4 -3 14 3 22 6 7
9 13 6 13 -2 0 -10 -6 -16 -14z"/>
<path d="M3770 4766 c0 -8 5 -18 10 -21 6 -3 10 3 10 14 0 12 -4 21 -10 21 -5
0 -10 -6 -10 -14z"/>
<path d="M5608 4760 c-15 -5 -33 -14 -41 -22 -17 -17 -43 -80 -38 -93 2 -5 5
-23 8 -40 3 -16 9 -31 14 -33 5 -2 9 -9 9 -16 0 -7 20 -17 45 -23 53 -12 89 1
91 33 2 34 13 47 30 33 11 -9 14 -8 14 8 0 11 3 23 7 27 10 10 13 66 3 66 -5
0 -6 9 -3 19 4 16 1 19 -16 14 -12 -3 -21 -1 -21 5 0 21 -62 34 -102 22z"/>
<path d="M9719 4753 c-13 -16 -12 -17 4 -4 16 13 21 21 13 21 -2 0 -10 -8 -17
-17z"/>
<path d="M3865 4749 c-10 -15 3 -25 16 -12 7 7 7 13 1 17 -6 3 -14 1 -17 -5z"/>
<path d="M3690 4739 c0 -5 5 -7 10 -4 6 3 10 8 10 11 0 2 -4 4 -10 4 -5 0 -10
-5 -10 -11z"/>
<path d="M2679 4643 c-13 -16 -12 -17 4 -4 9 7 17 15 17 17 0 8 -8 3 -21 -13z"/>
<path d="M3011 4619 c-10 -4 -22 -12 -25 -18 -4 -7 -1 -8 8 -5 9 3 16 1 16 -6
0 -23 -33 -110 -41 -110 -5 0 -8 -3 -7 -7 5 -21 -16 -75 -39 -98 -17 -16 -20
-23 -10 -19 15 5 16 3 7 -21 -6 -15 -19 -39 -30 -53 -11 -13 -20 -28 -20 -32
0 -14 30 -20 54 -10 17 6 28 4 40 -8 14 -13 16 -14 11 -2 -4 12 5 15 45 15 27
0 50 -4 50 -9 0 -6 4 -6 10 0 5 5 30 8 55 6 37 -3 45 -7 40 -19 -4 -13 -2 -13
20 1 14 9 25 12 25 7 0 -5 9 -7 20 -4 12 3 29 -2 40 -12 33 -30 50 -13 51 52
1 32 1 62 0 67 -1 4 -2 41 -3 81 l-2 72 -62 6 c-76 7 -129 33 -189 90 -33 32
-49 41 -64 36z"/>
<path d="M5992 4610 c0 -14 2 -19 5 -12 2 6 2 18 0 25 -3 6 -5 1 -5 -13z"/>
<path d="M1929 4576 c-1 -3 -3 -10 -4 -16 -1 -5 -3 -14 -4 -20 0 -5 -8 -7 -15
-4 -26 10 -71 -42 -71 -81 0 -20 5 -35 11 -35 17 0 25 -27 18 -56 -5 -19 -1
-26 17 -33 32 -12 73 -57 65 -70 -4 -6 -1 -9 7 -6 7 3 30 -1 51 -10 64 -27 96
-5 147 99 15 32 34 64 40 72 9 11 8 14 -5 14 -19 0 -22 40 -4 58 9 9 6 12 -15
12 -16 0 -32 8 -39 20 -7 11 -20 20 -28 20 -9 0 -21 5 -27 11 -8 8 -22 8 -49
0 -53 -15 -74 -14 -74 3 0 14 -19 33 -21 22z"/>
<path d="M8759 4563 c-13 -16 -12 -17 4 -4 16 13 21 21 13 21 -2 0 -10 -8 -17
-17z"/>
<path d="M6030 4365 c0 -8 5 -15 10 -15 6 0 10 7 10 15 0 8 -4 15 -10 15 -5 0
-10 -7 -10 -15z"/>
<path d="M9717 4319 c7 -7 15 -10 18 -7 3 3 -2 9 -12 12 -14 6 -15 5 -6 -5z"/>
<path d="M4029 4315 c-3 -2 -14 -6 -25 -8 -45 -7 -99 -51 -150 -123 -66 -92
-129 -282 -127 -376 1 -21 -3 -38 -8 -38 -6 0 -7 -14 -4 -32 4 -18 2 -44 -3
-58 -6 -16 -5 -31 2 -42 8 -13 8 -23 -1 -36 -6 -11 -8 -24 -3 -31 4 -7 6 -40
5 -72 -1 -33 2 -62 6 -64 4 -3 3 -21 -1 -40 -4 -20 -4 -35 1 -35 5 0 9 -15 9
-32 -1 -62 11 -153 21 -156 5 -2 6 -8 3 -13 -7 -12 16 -189 25 -189 4 0 7 -8
8 -17 3 -62 22 -143 34 -143 5 0 6 -7 3 -15 -4 -8 -1 -15 5 -15 6 0 10 -3 10
-7 -3 -15 14 -74 22 -79 5 -3 9 -14 9 -25 0 -10 5 -19 10 -19 6 0 10 -12 10
-27 0 -57 40 -184 73 -235 39 -61 108 -128 157 -153 19 -10 65 -28 104 -41 62
-21 84 -24 191 -20 104 3 131 8 204 34 149 56 284 142 423 270 52 48 81 81
168 189 6 7 15 24 22 38 6 14 16 25 21 25 6 0 7 3 4 6 -4 4 3 20 14 35 21 30
83 189 74 189 -3 0 -1 9 4 19 19 35 41 206 40 312 -1 140 -3 169 -10 169 -3 0
-6 21 -7 48 -3 47 -42 167 -70 210 -9 14 -24 22 -41 22 -43 0 -60 -20 -64 -75
l-3 -49 -49 3 c-76 4 -126 10 -175 20 -25 5 -48 8 -51 5 -3 -2 -48 5 -100 15
-52 10 -101 19 -109 19 -54 1 -338 88 -438 133 -34 16 -64 29 -67 29 -2 0 -37
15 -77 33 -40 19 -92 42 -115 52 -34 14 -42 22 -38 39 2 12 13 66 25 121 11
55 27 126 35 157 8 32 15 62 15 68 0 10 -13 14 -21 5z m336 -1903 c20 -15 16
-34 -7 -30 -13 2 -24 11 -26 21 -4 17 15 23 33 9z"/>
<path d="M5683 4313 c-18 -7 -16 -33 2 -33 8 0 15 9 15 20 0 11 -1 20 -2 19
-2 0 -9 -3 -15 -6z"/>
<path d="M1890 4280 c-9 -6 -10 -10 -3 -10 6 0 15 5 18 10 8 12 4 12 -15 0z"/>
<path d="M5860 4275 c0 -8 7 -15 15 -15 8 0 15 7 15 15 0 8 -7 15 -15 15 -8 0
-15 -7 -15 -15z"/>
<path d="M8315 4251 c-3 -5 -2 -12 3 -15 5 -3 9 1 9 9 0 17 -3 19 -12 6z"/>
<path d="M5667 4220 c3 -11 9 -17 15 -14 5 3 4 12 -3 20 -16 19 -18 18 -12 -6z"/>
<path d="M5715 4231 c-8 -15 3 -31 21 -31 9 0 14 7 12 17 -4 20 -24 28 -33 14z"/>
<path d="M5822 4228 c3 -7 17 -14 31 -16 21 -3 27 1 26 15 0 10 -3 13 -6 6 -6
-15 -33 -17 -33 -3 0 6 -5 10 -11 10 -6 0 -9 -6 -7 -12z"/>
<path d="M8269 4203 c-13 -16 -12 -17 4 -4 16 13 21 21 13 21 -2 0 -10 -8 -17
-17z"/>
<path d="M1833 4169 c-33 -33 -40 -46 -38 -73 3 -52 23 -90 56 -110 23 -14 29
-23 25 -39 -3 -14 -2 -17 6 -9 16 16 38 3 38 -24 0 -25 15 -33 24 -11 3 8 9 6
21 -8 21 -26 12 -80 -20 -120 -36 -44 -105 -143 -105 -151 0 -3 9 -4 20 -1 11
3 20 2 21 -1 0 -4 2 -16 4 -27 8 -41 -3 -52 -53 -51 -26 0 -50 5 -54 11 -5 6
-8 6 -8 -2 0 -7 -13 -19 -29 -27 -35 -19 -94 -73 -109 -101 -10 -19 -8 -20 31
-17 23 2 51 7 62 12 39 16 52 18 66 9 10 -6 10 -9 2 -9 -7 0 -13 -5 -13 -10 0
-7 7 -7 21 1 24 13 39 2 42 -29 0 -11 5 -20 10 -19 15 3 28 -55 15 -70 -6 -7
-7 -13 -2 -13 4 0 3 -5 -4 -12 -7 -7 -12 -17 -12 -23 1 -5 9 0 20 13 l19 23 7
-25 c11 -47 2 -60 -49 -70 -37 -7 -50 -7 -57 3 -5 9 -10 10 -14 2 -5 -7 -40
-11 -92 -10 -47 0 -88 -2 -91 -5 -4 -3 -12 -1 -20 5 -9 8 -17 8 -25 1 -7 -5
-42 -9 -78 -8 -36 1 -69 -1 -75 -5 -18 -11 -75 -19 -75 -9 0 5 -29 -2 -65 -15
-67 -26 -115 -34 -85 -15 8 5 11 12 8 15 -4 4 -22 -4 -40 -18 -18 -14 -71 -38
-117 -53 -100 -32 -194 -99 -225 -159 -11 -21 -23 -66 -27 -98 -4 -32 -10 -61
-13 -65 -4 -3 -33 -1 -64 6 -160 33 -312 2 -411 -85 -156 -136 -171 -422 -36
-656 46 -79 156 -187 226 -223 61 -30 171 -64 211 -64 59 0 58 3 58 -184 0
-184 8 -217 62 -277 44 -50 141 -109 237 -144 165 -62 161 -60 155 -95 -15
-74 81 -145 256 -190 111 -28 169 -34 325 -34 212 1 335 44 335 119 l0 33 73
12 c111 18 226 49 283 76 62 29 134 103 134 138 0 16 12 34 33 50 17 14 28 26
23 26 -5 0 -18 -7 -28 -16 -17 -16 -17 -15 -2 36 27 91 32 100 56 100 13 0 34
3 47 7 20 5 23 3 18 -10 -4 -10 -2 -17 3 -17 6 0 10 5 10 11 0 6 9 8 20 4 12
-4 26 -3 33 2 7 5 23 10 35 11 17 1 22 -3 18 -14 -3 -9 -1 -12 4 -9 10 6 33
12 89 22 30 5 34 4 27 -12 -7 -18 -6 -18 13 -1 14 13 20 14 24 4 3 -10 8 -11
26 0 28 16 51 15 72 -3 15 -14 18 -14 31 -1 16 16 98 20 98 5 0 -7 33 -6 50 2
3 1 47 3 98 3 72 1 91 -1 87 -11 -3 -10 0 -11 15 -3 11 6 20 7 20 3 0 -4 5 -2
12 5 13 13 48 16 48 4 0 -4 -6 -14 -12 -20 -7 -7 2 -6 20 3 45 23 122 26 145
7 9 -8 17 -11 17 -5 0 5 6 10 13 11 6 0 23 3 36 6 28 6 54 -10 44 -28 -3 -6 5
-1 18 11 30 27 97 29 116 4 8 -11 12 -12 13 -4 0 7 3 12 8 11 4 -1 20 2 35 7
20 5 33 3 46 -9 16 -15 19 -15 31 -1 16 19 78 17 103 -3 10 -9 17 -11 17 -4 0
16 67 27 84 13 7 -6 16 -8 20 -4 3 4 33 7 66 8 48 1 60 -2 60 -14 0 -14 1 -14
10 -1 5 8 10 11 10 6 0 -5 6 -4 13 1 16 13 57 14 57 2 0 -5 12 -7 28 -4 47 10
122 14 121 7 -3 -18 2 -26 10 -14 7 12 28 14 88 10 18 -2 20 -5 10 -18 -6 -8
-2 -6 11 4 27 23 97 29 114 9 7 -9 13 -10 18 -3 3 5 50 11 103 13 76 2 97 0
93 -10 -3 -7 0 -15 6 -19 6 -4 8 -3 5 3 -4 6 1 17 10 24 14 12 16 12 8 0 -6
-11 -4 -13 11 -7 45 18 83 18 100 2 14 -15 18 -15 33 -2 17 16 89 18 108 4 7
-6 28 -5 54 2 25 7 44 8 48 2 3 -5 15 -8 26 -6 58 11 81 11 92 2 8 -6 24 -5
48 3 24 9 38 10 43 3 6 -9 28 -11 42 -5 17 8 60 8 60 1 0 -5 7 -6 17 -3 12 5
14 3 8 -8 -6 -10 -3 -9 11 2 16 14 89 20 102 9 6 -6 30 -5 60 1 17 4 34 3 37
-1 3 -5 20 -4 38 1 38 11 97 9 114 -4 7 -5 18 -5 25 -1 20 13 56 16 62 5 4 -6
18 -6 39 0 42 12 80 12 72 -1 -7 -11 8 -14 19 -3 9 9 176 11 176 2 0 -5 14 -3
30 3 17 5 38 7 48 2 24 -10 35 -11 47 -4 6 3 28 5 50 3 22 -1 45 -3 50 -3 6
-1 29 2 53 5 25 3 42 2 42 -4 0 -5 10 -8 23 -5 12 3 61 6 110 7 83 3 87 2 81
-18 -4 -15 -3 -16 4 -6 5 7 15 10 21 7 6 -4 11 -3 11 2 0 5 6 9 13 10 6 1 23
3 37 5 14 2 33 -3 43 -11 12 -11 17 -12 17 -3 0 7 5 9 10 6 6 -3 10 -2 10 3 0
5 23 9 50 8 28 0 50 -3 50 -7 0 -8 12 -7 63 6 17 5 27 3 27 -4 0 -11 22 -10
53 4 26 11 51 -13 35 -34 -7 -9 -1 -6 12 6 19 15 37 21 70 19 25 0 51 -5 58
-10 20 -12 25 -1 28 56 1 34 -1 46 -7 37 -8 -12 -10 -12 -19 1 -5 8 -10 23
-10 33 0 9 -9 26 -21 38 -11 11 -18 27 -15 35 3 8 1 14 -4 14 -6 0 -10 6 -10
14 0 8 -7 17 -16 20 -8 3 -14 14 -13 23 3 33 -1 43 -16 43 -14 0 -17 4 -19 32
-1 7 -13 26 -28 42 -16 17 -28 41 -28 54 0 15 -7 26 -20 29 -11 3 -20 12 -20
20 0 15 -36 64 -79 109 -12 11 -27 35 -34 53 -8 18 -18 31 -23 29 -5 -2 -15
12 -23 30 -8 17 -20 32 -27 32 -16 0 -33 22 -37 51 -3 16 -10 23 -21 21 -20
-4 -48 16 -41 28 3 5 1 11 -5 15 -6 4 -7 12 -3 18 5 8 2 8 -9 0 -12 -11 -18
-10 -32 5 -9 10 -14 21 -11 24 3 3 -1 11 -10 18 -8 7 -15 9 -15 6 0 -17 -39
17 -42 36 -2 17 -10 23 -28 23 -19 0 -24 5 -22 18 3 15 -1 17 -18 12 -16 -5
-23 -2 -27 14 -3 11 -9 19 -13 16 -13 -8 -40 6 -40 21 0 8 -3 14 -7 15 -32 3
-49 10 -60 25 -7 10 -22 19 -34 21 -36 5 -79 33 -79 51 0 13 -2 14 -8 4 -7
-10 -15 -10 -36 -2 -15 5 -25 14 -22 19 3 4 -20 11 -51 15 -32 4 -66 14 -77
24 -14 12 -20 14 -23 5 -6 -17 -22 -16 -57 2 -18 10 -33 12 -40 6 -6 -5 -24
-7 -39 -4 -27 5 -27 6 -10 27 17 19 17 20 0 7 -9 -8 -20 -11 -24 -8 -3 4 -15
0 -27 -8 -22 -16 -76 -20 -76 -6 0 5 -25 7 -56 4 -39 -4 -59 -2 -64 7 -6 9
-13 9 -28 1 -25 -13 -85 -15 -77 -2 3 6 -7 6 -27 0 -40 -11 -101 -12 -94 -1 2
4 -4 8 -14 9 -11 1 -22 -2 -25 -8 -9 -14 -73 -11 -78 4 -4 10 -7 10 -18 0 -7
-7 -27 -13 -45 -13 -34 0 -50 -13 -124 -100 -45 -53 -287 -298 -331 -335 -13
-11 -44 -36 -69 -55 -25 -19 -49 -38 -55 -43 -5 -4 -23 -19 -40 -32 -16 -14
-33 -25 -36 -25 -3 0 -15 -8 -27 -18 -48 -42 -101 -76 -197 -128 -27 -15 -53
-32 -57 -38 -4 -6 -8 -8 -8 -3 0 4 -10 1 -22 -7 -35 -21 -177 -68 -188 -61 -6
3 -10 2 -10 -3 0 -22 -273 -32 -311 -11 -9 4 -19 6 -22 3 -5 -5 -168 54 -177
65 -3 3 -17 12 -32 20 -47 24 -165 146 -210 217 -66 102 -169 334 -173 388 -1
11 -7 22 -14 24 -6 2 -9 7 -7 10 2 4 -8 54 -24 112 l-27 105 -44 0 c-39 0 -44
2 -43 23 1 18 -1 20 -12 11 -8 -6 -11 -15 -8 -20 3 -5 -15 -9 -40 -9 -30 0
-46 4 -46 13 0 8 -4 7 -10 -3 -8 -12 -11 -13 -19 -1 -6 9 -11 10 -15 2 -10
-16 -62 -13 -76 4 -9 11 -16 13 -24 5 -5 -5 -25 -10 -44 -10 -28 0 -32 3 -23
14 9 11 6 12 -14 8 -14 -2 -22 -8 -19 -13 3 -5 -15 -9 -40 -9 -30 0 -48 5 -54
16 -8 14 -10 14 -21 0 -15 -18 -61 -22 -61 -6 0 6 -9 10 -19 10 -20 0 -57 72
-40 78 13 5 11 29 -3 38 -7 4 -8 3 -4 -4 4 -7 1 -12 -8 -12 -8 0 -27 17 -41
37 -14 21 -25 34 -25 29 0 -5 -11 1 -25 14 -14 13 -25 31 -25 39 0 12 -2 13
-8 3 -12 -18 -42 -4 -52 24 -7 17 -16 23 -32 21 -17 -1 -23 3 -22 16 2 19 -12
23 -18 5 -7 -20 -38 0 -38 24 0 17 -3 19 -12 10 -17 -17 -47 -15 -54 3 -4 10
-14 13 -29 9 -13 -3 -30 -2 -37 2 -7 5 -20 9 -28 9 -8 0 -14 6 -13 13 3 14
-14 17 -19 2 -5 -15 -48 1 -48 18 0 11 -3 13 -10 6 -11 -11 -171 9 -201 25 -8
5 -27 7 -42 4 -15 -3 -33 -1 -40 5 -7 6 -28 7 -55 2 -33 -6 -45 -4 -49 6 -3 9
-15 11 -35 7 -29 -6 -31 -5 -24 18 4 13 9 35 12 49 3 14 14 45 26 70 11 25 22
68 24 95 2 28 6 60 9 71 3 14 -1 24 -10 28 -19 7 -19 30 0 46 21 18 19 29 -5
23 -39 -10 -22 34 31 84 28 26 46 49 40 51 -15 5 -40 -16 -63 -53 -13 -21 -18
-25 -18 -12 0 26 58 112 124 185 23 24 26 32 14 32 -9 0 -19 -8 -21 -17 -2
-10 -2 14 1 52 4 68 4 71 -22 85 -16 8 -25 19 -21 28 4 11 -1 13 -20 8 -17 -4
-31 0 -45 14 -11 11 -26 20 -34 20 -8 0 -18 18 -24 43 -6 23 -22 56 -35 74
l-24 32 -40 -40z m-1127 -1644 l36 -15 -7 -262 c-3 -144 -8 -264 -11 -267 -2
-3 -26 -5 -52 -5 -114 1 -208 102 -247 266 -32 137 -8 231 71 275 47 27 155
31 210 8z m1159 -665 c-6 -19 2 -25 31 -21 9 1 10 -9 4 -34 -4 -20 -4 -35 1
-35 5 0 9 4 9 10 0 6 17 8 40 5 38 -5 40 -4 40 22 0 20 3 24 11 16 7 -7 8 -23
3 -45 -4 -18 -7 -39 -5 -47 1 -8 -2 -10 -10 -5 -9 5 -10 2 -6 -9 3 -9 2 -19
-4 -22 -5 -4 -6 -11 -3 -17 4 -7 2 -8 -4 -4 -8 4 -12 0 -12 -11 0 -14 -2 -15
-9 -4 -5 8 -7 21 -4 29 5 12 3 12 -15 1 -11 -7 -20 -18 -19 -23 1 -6 -6 -10
-15 -10 -10 1 -18 -4 -18 -12 0 -9 -12 -14 -36 -14 -27 0 -35 4 -31 14 3 9 -4
21 -19 30 -13 9 -24 23 -24 30 0 8 -7 16 -15 20 -8 3 -15 10 -15 16 0 6 4 9 9
6 5 -4 4 5 -2 19 -7 14 -16 25 -20 25 -5 0 -5 5 -2 10 4 6 10 8 15 5 4 -3 11
2 14 11 4 10 2 13 -7 8 -6 -4 -1 5 12 19 19 21 28 24 42 16 13 -7 19 -6 19 2
0 6 7 9 15 5 8 -3 15 -1 15 4 0 6 5 10 11 10 6 0 8 -9 4 -20z m-71 -195 c11
-8 16 -15 10 -15 -5 0 -18 7 -28 15 -11 8 -16 15 -10 15 5 0 18 -7 28 -15z
m131 -25 c-3 -5 -14 -10 -23 -10 -15 0 -15 2 -2 10 20 13 33 13 25 0z"/>
<path d="M1960 1704 c0 -8 5 -12 10 -9 6 4 8 11 5 16 -9 14 -15 11 -15 -7z"/>
<path d="M5605 4180 c3 -5 8 -10 11 -10 2 0 4 5 4 10 0 6 -5 10 -11 10 -5 0
-7 -4 -4 -10z"/>
<path d="M8235 4171 c-3 -5 -2 -12 3 -15 5 -3 9 1 9 9 0 17 -3 19 -12 6z"/>
<path d="M5705 4119 c0 -16 3 -29 7 -29 11 0 10 47 0 54 -4 2 -8 -9 -7 -25z"/>
<path d="M5910 4139 c0 -5 5 -7 10 -4 6 3 10 8 10 11 0 2 -4 4 -10 4 -5 0 -10
-5 -10 -11z"/>
<path d="M1548 4081 c-25 -16 -49 -34 -52 -40 -4 -6 -11 -9 -16 -6 -5 3 -12 0
-16 -6 -4 -8 -3 -9 4 -5 14 8 15 -3 3 -23 -13 -20 6 -90 38 -142 25 -41 27
-47 12 -58 -13 -9 -12 -9 6 -1 18 8 25 6 41 -14 23 -30 38 -33 84 -17 42 14
69 47 110 134 27 57 37 86 19 59 -6 -10 -11 -5 -20 17 -7 16 -21 37 -32 47
-18 16 -18 18 -2 38 10 12 11 15 3 9 -17 -15 -56 -17 -65 -3 -3 6 -13 10 -22
10 -9 0 -24 7 -33 15 -15 13 -21 12 -62 -14z"/>
<path d="M9719 4033 c-13 -16 -12 -17 4 -4 9 7 17 15 17 17 0 8 -8 3 -21 -13z"/>
<path d="M1436 4023 c-6 -14 -5 -15 5 -6 7 7 10 15 7 18 -3 3 -9 -2 -12 -12z"/>
<path d="M6761 4018 c-64 -17 -106 -53 -146 -123 -32 -57 -39 -94 -21 -114 20
-22 26 -87 8 -83 -67 13 -78 12 -98 -10 -28 -31 -74 -113 -74 -131 0 -26 48
-49 90 -43 24 3 40 1 42 -6 2 -6 31 -11 68 -12 54 -1 73 4 112 27 56 33 117
102 160 181 43 82 50 182 16 240 -40 68 -90 92 -157 74z"/>
<path d="M2116 3913 c-6 -14 -5 -15 5 -6 7 7 10 15 7 18 -3 3 -9 -2 -12 -12z"/>
<path d="M9529 3863 c-13 -16 -12 -17 4 -4 16 13 21 21 13 21 -2 0 -10 -8 -17
-17z"/>
<path d="M9629 3803 c-13 -16 -12 -17 4 -4 9 7 17 15 17 17 0 8 -8 3 -21 -13z"/>
<path d="M1355 3771 c-3 -5 -2 -12 3 -15 5 -3 9 1 9 9 0 17 -3 19 -12 6z"/>
<path d="M1874 3756 c1 -8 5 -18 8 -22 4 -3 5 1 4 10 -1 8 -5 18 -8 22 -4 3
-5 -1 -4 -10z"/>
<path d="M9319 3517 c6 -8 7 -18 3 -22 -4 -5 -1 -5 6 -1 10 6 10 11 1 22 -6 8
-14 14 -16 14 -3 0 0 -6 6 -13z"/>
<path d="M2441 3436 c-9 -11 -9 -16 1 -22 7 -4 10 -4 6 1 -4 4 -3 14 3 22 6 7
9 13 6 13 -2 0 -10 -6 -16 -14z"/>
<path d="M7277 3439 c7 -7 15 -10 18 -7 3 3 -2 9 -12 12 -14 6 -15 5 -6 -5z"/>
<path d="M9230 3446 c0 -2 8 -10 18 -17 15 -13 16 -12 3 4 -13 16 -21 21 -21
13z"/>
<path d="M1645 3381 c-7 -12 12 -24 25 -16 11 7 4 25 -10 25 -5 0 -11 -4 -15
-9z"/>
<path d="M1965 3260 c-10 -11 -14 -20 -9 -20 5 0 15 9 22 20 7 11 11 20 9 20
-2 0 -12 -9 -22 -20z"/>
<path d="M8523 3265 c0 -8 4 -12 9 -9 5 3 6 10 3 15 -9 13 -12 11 -12 -6z"/>
<path d="M1990 3210 c-9 -6 -10 -10 -3 -10 6 0 15 5 18 10 8 12 4 12 -15 0z"/>
<path d="M8649 3193 l-24 -28 28 24 c15 14 27 26 27 28 0 8 -8 1 -31 -24z"/>
<path d="M7399 3143 c-13 -16 -12 -17 4 -4 9 7 17 15 17 17 0 8 -8 3 -21 -13z"/>
<path d="M3169 3053 c-13 -16 -12 -17 4 -4 16 13 21 21 13 21 -2 0 -10 -8 -17
-17z"/>
<path d="M3089 2973 c-13 -16 -12 -17 4 -4 16 13 21 21 13 21 -2 0 -10 -8 -17
-17z"/>
<path d="M6193 2963 c0 -9 4 -10 14 -2 7 6 13 12 13 14 0 1 -6 2 -13 2 -8 0
-14 -6 -14 -14z"/>
<path d="M8449 2963 c-13 -16 -12 -17 4 -4 9 7 17 15 17 17 0 8 -8 3 -21 -13z"/>
<path d="M8309 2953 c-13 -16 -12 -17 4 -4 16 13 21 21 13 21 -2 0 -10 -8 -17
-17z"/>
<path d="M6373 2805 c0 -8 4 -12 9 -9 5 3 6 10 3 15 -9 13 -12 11 -12 -6z"/>
<path d="M6079 2753 c-13 -16 -12 -17 4 -4 9 7 17 15 17 17 0 8 -8 3 -21 -13z"/>
<path d="M6199 2753 c-13 -16 -12 -17 4 -4 9 7 17 15 17 17 0 8 -8 3 -21 -13z"/>
<path d="M6500 2632 c0 -12 3 -12 15 -2 8 7 15 13 15 15 0 1 -7 2 -15 2 -8 0
-15 -7 -15 -15z"/>
<path d="M9237 2559 c7 -7 15 -10 18 -7 3 3 -2 9 -12 12 -14 6 -15 5 -6 -5z"/>
<path d="M7803 1585 c0 -8 4 -12 9 -9 5 3 6 10 3 15 -9 13 -12 11 -12 -6z"/>
<path d="M4670 1361 c0 -6 4 -13 10 -16 6 -3 7 1 4 9 -7 18 -14 21 -14 7z"/>
<path d="M2681 1317 c-8 -10 -7 -14 4 -14 8 0 15 4 15 9 0 5 5 6 10 3 6 -3 10
-1 10 4 0 15 -25 14 -39 -2z"/>
<path d="M4618 1318 c9 -9 9 -15 -1 -27 -11 -14 -10 -14 6 -2 13 10 15 17 6
27 -6 8 -14 14 -17 14 -3 0 -1 -5 6 -12z"/>
<path d="M4860 1315 c11 -13 8 -19 -11 -17 -3 1 -6 -6 -6 -14 0 -11 4 -11 19
2 14 13 15 20 7 31 -6 7 -14 13 -16 13 -3 0 0 -7 7 -15z"/>
<path d="M5100 1315 c11 -13 8 -19 -11 -17 -3 1 -6 -6 -6 -14 0 -11 4 -11 19
2 14 13 15 20 7 31 -6 7 -14 13 -16 13 -3 0 0 -7 7 -15z"/>
<path d="M3883 1283 c0 -9 4 -10 14 -2 7 6 13 12 13 14 0 1 -6 2 -13 2 -8 0
-14 -6 -14 -14z"/>
<path d="M7083 1293 c4 -3 1 -13 -6 -22 -11 -14 -10 -14 5 -2 16 12 16 31 1
31 -4 0 -3 -3 0 -7z"/>
<path d="M2759 1277 c6 -8 7 -18 3 -22 -4 -5 -1 -5 6 -1 10 6 10 11 1 22 -6 8
-14 14 -16 14 -3 0 0 -6 6 -13z"/>
<path d="M3789 1233 c-13 -16 -12 -17 4 -4 16 13 21 21 13 21 -2 0 -10 -8 -17
-17z"/>
<path d="M4749 1233 c-13 -16 -12 -17 4 -4 9 7 17 15 17 17 0 8 -8 3 -21 -13z"/>
<path d="M4989 1233 c-13 -16 -12 -17 4 -4 9 7 17 15 17 17 0 8 -8 3 -21 -13z"/>
<path d="M3789 1193 l-34 -38 38 34 c20 19 37 36 37 38 0 8 -8 0 -41 -34z"/>
<path d="M4529 1213 c-13 -16 -12 -17 4 -4 16 13 21 21 13 21 -2 0 -10 -8 -17
-17z"/>
<path d="M4764 1208 l-19 -23 23 19 c21 18 27 26 19 26 -2 0 -12 -10 -23 -22z"/>
<path d="M5259 1213 c-13 -16 -12 -17 4 -4 9 7 17 15 17 17 0 8 -8 3 -21 -13z"/>
<path d="M7234 1188 l-19 -23 23 19 c12 11 22 21 22 23 0 8 -8 2 -26 -19z"/>
<path d="M7079 1043 l-24 -28 28 24 c15 14 27 26 27 28 0 8 -8 1 -31 -24z"/>
<path d="M3164 1038 l-19 -23 23 19 c12 11 22 21 22 23 0 8 -8 2 -26 -19z"/>
<path d="M7009 973 c-13 -16 -12 -17 4 -4 9 7 17 15 17 17 0 8 -8 3 -21 -13z"/>
<path d="M7164 888 l-19 -23 23 19 c12 11 22 21 22 23 0 8 -8 2 -26 -19z"/>
<path d="M3644 808 l-19 -23 23 19 c21 18 27 26 19 26 -2 0 -12 -10 -23 -22z"/>
<path d="M7084 808 l-19 -23 23 19 c12 11 22 21 22 23 0 8 -8 2 -26 -19z"/>
</g>
</svg>
